<svg xmlns="http://www.w3.org/2000/svg" viewBox="0 0 384 96" role="img" aria-label="Pixel agent sprite sheet">
  <defs>
    <style>
      .o{stroke:#102131;stroke-width:4;shape-rendering:crispEdges}.skin{fill:#ffd0a3}.dark{fill:#162635}.shoe{fill:#101820}
    </style>
  </defs>
  <g id="codex">
    <rect class="o skin" x="12" y="8" width="24" height="22"/>
    <rect class="o" x="8" y="30" width="32" height="42" fill="#64d2a6"/>
    <rect class="dark" x="16" y="34" width="16" height="8"/>
    <rect class="shoe" x="8" y="72" width="12" height="12"/><rect class="shoe" x="28" y="72" width="12" height="12"/>
  </g>
  <g id="hermes" transform="translate(48)">
    <rect class="o skin" x="12" y="8" width="24" height="22"/>
    <rect class="o" x="8" y="30" width="32" height="42" fill="#ffcf66"/>
    <rect class="dark" x="13" y="35" width="22" height="6"/>
    <rect class="shoe" x="8" y="72" width="12" height="12"/><rect class="shoe" x="28" y="72" width="12" height="12"/>
  </g>
  <g id="claude" transform="translate(96)">
    <rect class="o skin" x="12" y="8" width="24" height="22"/>
    <rect class="o" x="8" y="30" width="32" height="42" fill="#9fb7ff"/>
    <rect class="dark" x="18" y="31" width="12" height="40"/>
    <rect class="shoe" x="8" y="72" width="12" height="12"/><rect class="shoe" x="28" y="72" width="12" height="12"/>
  </g>
  <g id="openclaw" transform="translate(144)">
    <rect class="o skin" x="12" y="8" width="24" height="22"/>
    <rect class="o" x="8" y="30" width="32" height="42" fill="#ff8a7a"/>
    <path class="o" d="M8 48h-8v14h8M40 48h8v14h-8" fill="#ffcf66"/>
    <rect class="shoe" x="8" y="72" width="12" height="12"/><rect class="shoe" x="28" y="72" width="12" height="12"/>
  </g>
  <g id="temp" transform="translate(192)">
    <rect class="o skin" x="12" y="8" width="24" height="22"/>
    <rect class="o" x="8" y="30" width="32" height="42" fill="#dda6ff"/>
    <rect class="dark" x="10" y="30" width="28" height="8"/>
    <rect class="shoe" x="8" y="72" width="12" height="12"/><rect class="shoe" x="28" y="72" width="12" height="12"/>
  </g>
  <g id="secretary" transform="translate(240)">
    <rect class="o skin" x="12" y="8" width="24" height="22"/>
    <rect class="o" x="8" y="30" width="32" height="42" fill="#71c7ff"/>
    <rect class="dark" x="8" y="30" width="32" height="8"/>
    <rect class="shoe" x="8" y="72" width="12" height="12"/><rect class="shoe" x="28" y="72" width="12" height="12"/>
  </g>
</svg>
